<svg width="168.000000" height="48.000000" viewBox="0 0 168 48" fill="none" xmlns="http://www.w3.org/2000/svg" xmlns:xlink="http://www.w3.org/1999/xlink">
	<desc>
			Created with Pixso.
	</desc>
	<defs/>
	<rect id="Rectangle" rx="24.000000" width="168.000000" height="48.000000" fill="#202020" fill-opacity="1.000000"/>
	<path id="Shop — Leggings" d="M39.18 21.22Q38.62 21.49 38.18 22.03L38.18 17.75L36.83 17.75L36.83 29L38.18 29L38.18 23.35Q38.37 22.97 38.65 22.68Q38.79 22.54 38.96 22.43Q39.1 22.32 39.26 22.25Q39.65 22.07 40.12 22.07Q40.92 22.07 41.31 22.48Q41.31 22.48 41.31 22.48Q41.7 22.89 41.71 23.75L41.71 29L43.06 29L43.06 23.76Q43.05 22.17 42.25 21.47Q41.63 20.92 40.53 20.92Q39.78 20.92 39.18 21.22ZM28.65 22.96Q29.47 23.72 31.28 24.24Q32.73 24.66 33.27 25.09Q33.47 25.24 33.59 25.43Q33.82 25.79 33.82 26.3Q33.82 26.74 33.64 27.08Q33.49 27.34 33.23 27.54Q32.64 27.99 31.52 27.99Q30.33 27.99 29.62 27.43Q29.32 27.2 29.14 26.89Q28.9 26.47 28.9 25.9L27.49 25.9Q27.49 26.46 27.68 26.95Q27.8 27.28 28.01 27.57Q28.01 27.57 28.02 27.58Q28.53 28.3 29.47 28.72Q29.66 28.8 29.84 28.87Q30.64 29.14 31.52 29.14Q33.22 29.14 34.23 28.36Q34.71 27.99 34.96 27.49Q35.24 26.96 35.24 26.29Q35.24 25.49 34.89 24.9Q34.88 24.88 34.88 24.87Q34.51 24.27 33.76 23.82Q33.01 23.37 31.68 23Q30.35 22.62 29.8 22.17Q29.46 21.89 29.33 21.54Q29.25 21.32 29.25 21.07Q29.25 20.57 29.47 20.2Q29.61 19.97 29.83 19.8Q30.41 19.34 31.45 19.34Q32.57 19.34 33.19 19.89Q33.35 20.05 33.48 20.23Q33.8 20.71 33.8 21.41L35.22 21.41Q35.22 20.96 35.09 20.55Q34.98 20.15 34.74 19.78Q34.64 19.61 34.51 19.46Q34.08 18.94 33.41 18.61Q32.55 18.18 31.45 18.18Q29.95 18.18 28.97 18.9Q28.9 18.95 28.83 19.01Q28.28 19.46 28.03 20.03Q27.83 20.52 27.83 21.09Q27.83 21.64 28.02 22.1Q28.23 22.58 28.65 22.96ZM114.14 18.58Q114.05 18.75 114.05 18.97Q114.05 19.19 114.15 19.37Q114.19 19.45 114.26 19.52Q114.28 19.54 114.3 19.56Q114.5 19.74 114.85 19.74Q115.2 19.74 115.41 19.56Q115.43 19.54 115.45 19.52Q115.52 19.44 115.57 19.36Q115.66 19.19 115.66 18.97Q115.66 18.76 115.57 18.59Q115.53 18.49 115.45 18.41Q115.42 18.38 115.39 18.35Q115.19 18.18 114.85 18.18Q114.51 18.18 114.32 18.35Q114.28 18.38 114.26 18.41Q114.19 18.49 114.14 18.58ZM87.88 27.85L82.82 27.85L82.82 18.33L81.41 18.33L81.41 29L87.88 29L87.88 27.85ZM45.19 22.86Q44.73 23.79 44.73 24.96L44.73 25.05Q44.73 26.67 45.5 27.74Q45.61 27.88 45.73 28.02Q46.12 28.46 46.62 28.73Q47.37 29.14 48.34 29.14Q49.21 29.14 49.92 28.8Q50.08 28.73 50.23 28.63Q50.51 28.45 50.75 28.23Q51.21 27.8 51.5 27.2Q51.94 26.28 51.94 25.12L51.94 25.03Q51.94 23.37 51.15 22.3Q51.05 22.17 50.94 22.04Q50.56 21.61 50.07 21.34Q49.32 20.92 48.33 20.92Q47.51 20.92 46.83 21.23Q46.64 21.32 46.46 21.43Q46.26 21.56 46.07 21.71Q45.53 22.17 45.19 22.86ZM59.51 28.04Q60.34 26.93 60.34 25.12L60.34 25Q60.34 23.08 59.51 22Q59.14 21.53 58.66 21.26Q58.05 20.92 57.25 20.92Q56.29 20.92 55.61 21.35Q55.24 21.59 54.95 21.95L54.88 21.07L53.64 21.07L53.64 32.04L55 32.04L55 28.23Q55.22 28.47 55.49 28.65Q56.22 29.14 57.27 29.14Q58.02 29.14 58.6 28.83Q59.12 28.56 59.51 28.04ZM90.71 28.69Q91.5 29.14 92.56 29.14Q93.74 29.14 94.57 28.6Q95.14 28.23 95.55 27.61L94.72 26.97Q94.39 27.39 93.96 27.67Q93.91 27.71 93.85 27.74Q93.35 28.04 92.63 28.04Q92.07 28.04 91.62 27.81Q91.26 27.64 90.96 27.31Q90.87 27.21 90.79 27.1Q90.3 26.42 90.28 25.42L95.65 25.42L95.65 24.86Q95.65 22.96 94.79 21.94Q94.54 21.64 94.22 21.43Q93.48 20.92 92.39 20.92Q91.98 20.92 91.59 21.02Q91.09 21.15 90.63 21.45Q90.41 21.59 90.22 21.76Q89.7 22.22 89.37 22.9Q88.92 23.82 88.92 25L88.92 25.25Q88.92 26.72 89.61 27.69Q89.76 27.9 89.93 28.08Q90.29 28.45 90.71 28.69ZM97.75 22.02Q96.89 23.11 96.89 24.97Q96.89 26.9 97.75 28.02Q98.2 28.6 98.79 28.88Q99.34 29.14 100.01 29.14Q100.96 29.14 101.64 28.71Q101.96 28.51 102.23 28.2L102.23 28.89Q102.23 29.79 101.78 30.33Q101.73 30.39 101.67 30.45Q101.6 30.53 101.51 30.6Q100.98 31.01 100.13 31.01Q99.66 31.01 99.24 30.86Q98.55 30.61 98 29.93L97.3 30.75Q97.31 30.76 97.32 30.77Q97.75 31.39 98.55 31.75Q99.18 32.03 99.83 32.1Q100.03 32.12 100.23 32.12Q101.48 32.12 102.32 31.52Q102.51 31.39 102.68 31.23Q102.86 31.05 103.01 30.84Q103.59 30.03 103.59 28.8L103.59 21.07L102.35 21.07L102.28 21.95Q101.99 21.57 101.6 21.34Q100.94 20.92 100.02 20.92Q99.28 20.92 98.7 21.22Q98.16 21.49 97.75 22.02ZM106.17 22.02Q105.31 23.11 105.31 24.97Q105.31 26.9 106.17 28.02Q106.62 28.6 107.21 28.88Q107.75 29.14 108.42 29.14Q109.37 29.14 110.06 28.71Q110.38 28.51 110.64 28.2L110.64 28.89Q110.64 29.79 110.2 30.33Q110.15 30.39 110.09 30.45Q110.01 30.53 109.93 30.6Q109.4 31.01 108.55 31.01Q108.08 31.01 107.66 30.86Q106.96 30.61 106.41 29.93L105.71 30.75Q105.72 30.76 105.73 30.77Q106.16 31.39 106.96 31.75Q107.59 32.03 108.25 32.1Q108.44 32.12 108.64 32.12Q109.9 32.12 110.74 31.52Q110.93 31.39 111.09 31.23Q111.28 31.05 111.42 30.84Q112 30.03 112 28.8L112 21.07L110.77 21.07L110.7 21.95Q110.4 21.57 110.02 21.34Q109.36 20.92 108.44 20.92Q107.7 20.92 107.11 21.22Q106.58 21.49 106.17 22.02ZM119.01 22.07L118.97 21.07L117.69 21.07L117.69 29L119.04 29L119.04 23.35Q119.23 22.97 119.51 22.68Q119.65 22.54 119.82 22.43Q119.96 22.32 120.12 22.25Q120.51 22.07 120.98 22.07Q121.78 22.07 122.17 22.48Q122.17 22.48 122.17 22.48Q122.56 22.89 122.56 23.75L122.56 29L123.92 29L123.92 23.76Q123.91 22.17 123.11 21.47Q122.49 20.92 121.39 20.92Q120.65 20.92 120.05 21.21Q119.46 21.5 119.01 22.07ZM126.5 22.02Q125.64 23.11 125.64 24.97Q125.64 26.9 126.5 28.02Q126.95 28.6 127.54 28.88Q128.09 29.14 128.75 29.14Q129.71 29.14 130.39 28.71Q130.71 28.51 130.97 28.2L130.97 28.89Q130.97 29.79 130.53 30.33Q130.48 30.39 130.42 30.45Q130.34 30.53 130.26 30.6Q129.73 31.01 128.88 31.01Q128.41 31.01 127.99 30.86Q127.29 30.61 126.75 29.93L126.04 30.75Q126.05 30.76 126.06 30.77Q126.49 31.39 127.3 31.75Q127.93 32.03 128.58 32.1Q128.77 32.12 128.97 32.12Q130.23 32.12 131.07 31.52Q131.26 31.39 131.42 31.23Q131.61 31.05 131.75 30.84Q132.34 30.03 132.34 28.8L132.34 21.07L131.1 21.07L131.03 21.95Q130.73 21.57 130.35 21.34Q129.69 20.92 128.77 20.92Q128.03 20.92 127.45 21.22Q126.91 21.49 126.5 22.02ZM138.85 26.34Q138.99 26.57 138.99 26.89Q138.99 27.11 138.91 27.29Q138.8 27.54 138.53 27.72Q138.06 28.04 137.29 28.04Q136.46 28.04 135.95 27.64Q135.73 27.47 135.6 27.25Q135.42 26.95 135.4 26.56L134.05 26.56Q134.05 26.83 134.11 27.08Q134.21 27.49 134.46 27.86Q134.53 27.97 134.61 28.06Q135 28.53 135.61 28.8Q136.34 29.14 137.29 29.14Q138.65 29.14 139.5 28.5Q139.92 28.18 140.14 27.75Q140.35 27.33 140.35 26.8Q140.35 26.19 140.07 25.76Q140.06 25.74 140.04 25.72Q139.74 25.27 139.11 24.96Q138.48 24.64 137.47 24.42Q136.45 24.19 136.06 23.94Q135.89 23.83 135.8 23.68Q135.67 23.48 135.67 23.2Q135.67 22.95 135.77 22.75Q135.88 22.53 136.09 22.36Q136.51 22.04 137.25 22.04Q137.82 22.04 138.23 22.29Q138.34 22.36 138.44 22.44Q138.75 22.7 138.86 23.03Q138.91 23.21 138.91 23.4L140.27 23.4Q140.27 22.87 140.07 22.43Q139.86 21.97 139.44 21.62Q139.37 21.57 139.3 21.52Q138.49 20.92 137.25 20.92Q136.12 20.92 135.34 21.45Q135.24 21.52 135.14 21.6Q134.63 22.02 134.44 22.55Q134.32 22.88 134.32 23.25Q134.32 23.75 134.53 24.14Q134.57 24.2 134.61 24.26Q134.9 24.68 135.5 24.99Q136.11 25.3 137.14 25.52Q138.17 25.74 138.58 26.04Q138.75 26.17 138.85 26.34ZM114.16 29L115.52 29L115.52 21.07L114.16 21.07L114.16 29ZM46.7 27.24Q46.09 26.44 46.09 25.12Q46.09 23.63 46.71 22.84Q47.02 22.43 47.43 22.23Q47.83 22.04 48.33 22.04Q48.85 22.04 49.26 22.25Q49.67 22.45 49.97 22.85Q50.59 23.66 50.59 24.96Q50.59 26.42 49.98 27.23Q49.69 27.61 49.31 27.81Q48.88 28.04 48.34 28.04Q47.8 28.04 47.38 27.82Q46.99 27.62 46.7 27.24ZM91.62 22.19Q91.97 22.04 92.39 22.04Q92.96 22.04 93.37 22.29Q93.57 22.42 93.74 22.6Q94.23 23.17 94.29 24.21L94.29 24.31L90.32 24.31Q90.46 23.23 91.01 22.63Q91.29 22.34 91.62 22.19ZM58.41 22.85Q58.98 23.63 58.98 24.97Q58.98 26.49 58.41 27.26Q58.13 27.64 57.75 27.83Q57.36 28.04 56.86 28.04Q56.22 28.04 55.75 27.76Q55.3 27.49 55 26.95L55 23.16Q55.32 22.6 55.8 22.33Q56.25 22.07 56.84 22.07Q57.38 22.07 57.8 22.3Q58.15 22.49 58.41 22.85ZM98.8 27.23Q98.26 26.46 98.26 25.12Q98.26 23.61 98.81 22.84Q99.06 22.5 99.4 22.31Q99.81 22.07 100.36 22.07Q100.93 22.07 101.38 22.32Q101.89 22.6 102.23 23.21L102.23 26.83Q101.91 27.43 101.42 27.72Q100.96 27.99 100.34 27.99Q99.79 27.99 99.38 27.75Q99.05 27.56 98.8 27.23ZM107.22 27.23Q106.67 26.46 106.67 25.12Q106.67 23.61 107.23 22.84Q107.48 22.5 107.82 22.31Q108.23 22.07 108.77 22.07Q109.35 22.07 109.79 22.32Q110.31 22.6 110.64 23.21L110.64 26.83Q110.33 27.43 109.83 27.72Q109.37 27.99 108.76 27.99Q108.21 27.99 107.79 27.75Q107.46 27.56 107.22 27.23ZM127.55 27.23Q127 26.46 127 25.12Q127 23.61 127.56 22.84Q127.81 22.5 128.15 22.31Q128.56 22.07 129.11 22.07Q129.68 22.07 130.12 22.32Q130.64 22.6 130.97 23.21L130.97 26.83Q130.66 27.43 130.16 27.72Q129.71 27.99 129.09 27.99Q128.54 27.99 128.12 27.75Q127.8 27.56 127.55 27.23ZM65.8 24.23L75.59 24.23L75.59 23.12L65.8 23.12L65.8 24.23Z" fill="#FFFFFF" fill-opacity="1.000000" fill-rule="evenodd"/>
</svg>
