<svg width="160.000000" height="48.000000" viewBox="0 0 160 48" fill="none" xmlns="http://www.w3.org/2000/svg" xmlns:xlink="http://www.w3.org/1999/xlink">
	<desc>
			Created with Pixso.
	</desc>
	<defs/>
	<rect id="Rectangle" rx="24.000000" width="160.000000" height="48.000000" fill="#202020" fill-opacity="1.000000"/>
	<path id="Shop — Rectrek" d="M37.79 20.7Q37.19 20.99 36.73 21.57L36.73 17L35.28 17L35.28 29L36.73 29L36.73 22.97Q36.92 22.57 37.23 22.26Q37.38 22.11 37.55 21.99Q37.71 21.88 37.88 21.8Q38.29 21.61 38.79 21.61Q39.65 21.61 40.06 22.04Q40.06 22.05 40.07 22.05Q40.48 22.49 40.48 23.4L40.48 29L41.93 29L41.93 23.41Q41.92 21.71 41.07 20.97Q40.4 20.39 39.23 20.39Q38.43 20.39 37.79 20.7ZM129.73 26.03L130.64 25.08L133.59 29L135.28 29L131.61 24.07L134.9 20.54L133.14 20.54L130.51 23.32L129.73 24.25L129.73 17L128.29 17L128.29 29L129.73 29L129.73 26.03ZM26.56 22.56Q27.44 23.37 29.37 23.92Q30.91 24.37 31.49 24.83Q31.7 24.99 31.83 25.19Q32.08 25.58 32.08 26.12Q32.08 26.59 31.88 26.95Q31.72 27.23 31.44 27.44Q30.81 27.92 29.62 27.92Q28.35 27.92 27.59 27.33Q27.27 27.08 27.09 26.75Q26.83 26.3 26.83 25.7L25.32 25.7Q25.32 26.3 25.52 26.82Q25.65 27.16 25.87 27.47Q25.88 27.48 25.88 27.49Q26.43 28.26 27.44 28.7Q27.63 28.79 27.83 28.86Q28.68 29.15 29.62 29.15Q31.43 29.15 32.51 28.32Q33.02 27.92 33.29 27.39Q33.58 26.82 33.58 26.1Q33.58 25.26 33.21 24.62Q33.21 24.61 33.2 24.6Q32.81 23.96 32.01 23.48Q31.21 23 29.79 22.6Q28.37 22.2 27.78 21.72Q27.42 21.42 27.28 21.04Q27.19 20.81 27.19 20.54Q27.19 20 27.43 19.61Q27.58 19.37 27.82 19.19Q28.44 18.7 29.55 18.7Q30.74 18.7 31.4 19.29Q31.58 19.45 31.71 19.64Q32.05 20.16 32.05 20.91L33.56 20.91Q33.56 20.43 33.43 19.99Q33.31 19.56 33.06 19.17Q32.94 18.99 32.81 18.83Q32.35 18.27 31.64 17.92Q30.72 17.46 29.55 17.46Q27.94 17.46 26.9 18.23Q26.83 18.28 26.75 18.34Q26.17 18.82 25.9 19.44Q25.68 19.95 25.68 20.57Q25.68 21.15 25.89 21.64Q26.11 22.15 26.56 22.56ZM84.33 24.39L87.01 24.39L89.48 29L91.08 29L91.08 28.9L88.41 24.07Q89.28 23.74 89.82 23.13Q89.92 23.02 90.01 22.89Q90.17 22.67 90.29 22.43Q90.58 21.81 90.58 21.04Q90.58 19.74 89.95 18.92Q89.78 18.69 89.55 18.5Q88.51 17.62 86.59 17.62L82.83 17.62L82.83 29L84.33 29L84.33 24.39ZM111.27 20.54L111.27 18.5L109.83 18.5L109.83 20.54L108.29 20.54L108.29 21.66L109.83 21.66L109.83 26.9Q109.83 27.98 110.32 28.57Q110.41 28.68 110.52 28.77Q111 29.15 111.78 29.15Q112.32 29.15 112.89 29L112.89 27.82Q112.45 27.92 112.2 27.92Q111.7 27.92 111.49 27.67Q111.49 27.67 111.48 27.66Q111.27 27.41 111.27 26.9L111.27 21.66L112.85 21.66L112.85 20.54L111.27 20.54ZM86.64 23.17L84.33 23.17L84.33 18.85L86.63 18.85Q87.82 18.86 88.45 19.42Q88.57 19.53 88.66 19.65Q89.08 20.18 89.08 21.04Q89.08 21.66 88.8 22.13Q88.65 22.38 88.42 22.59Q88.38 22.62 88.34 22.66Q87.69 23.17 86.64 23.17ZM44.2 22.46Q43.71 23.45 43.71 24.69L43.71 24.79Q43.71 26.52 44.53 27.65Q44.65 27.81 44.78 27.96Q45.2 28.43 45.72 28.71Q46.52 29.15 47.56 29.15Q48.49 29.15 49.24 28.79Q49.42 28.71 49.58 28.6Q49.88 28.42 50.13 28.18Q50.62 27.72 50.93 27.08Q51.41 26.1 51.41 24.86L51.41 24.76Q51.41 23 50.56 21.85Q50.46 21.71 50.34 21.58Q49.92 21.12 49.41 20.83Q48.6 20.39 47.55 20.39Q46.67 20.39 45.95 20.72Q45.75 20.81 45.56 20.92Q45.34 21.06 45.14 21.23Q44.56 21.72 44.2 22.46ZM59.48 27.97Q60.36 26.79 60.36 24.86L60.36 24.73Q60.36 22.68 59.47 21.53Q59.08 21.03 58.57 20.75Q57.92 20.39 57.06 20.39Q56.05 20.39 55.32 20.84Q54.92 21.09 54.61 21.48L54.54 20.54L53.22 20.54L53.22 32.25L54.66 32.25L54.66 28.17Q54.9 28.44 55.19 28.63Q55.96 29.15 57.08 29.15Q57.88 29.15 58.5 28.82Q59.06 28.53 59.48 27.97ZM93.99 28.67Q94.84 29.15 95.97 29.15Q97.23 29.15 98.12 28.57Q98.72 28.18 99.16 27.52L98.27 26.83Q97.92 27.28 97.47 27.58Q97.41 27.62 97.34 27.66Q96.81 27.97 96.05 27.97Q95.45 27.97 94.97 27.73Q94.58 27.54 94.27 27.2Q94.17 27.09 94.08 26.97Q93.56 26.25 93.54 25.18L99.26 25.18L99.26 24.58Q99.26 22.56 98.35 21.47Q98.08 21.15 97.75 20.92Q96.95 20.39 95.79 20.39Q95.35 20.39 94.93 20.49Q94.4 20.63 93.92 20.94Q93.68 21.1 93.47 21.28Q92.92 21.77 92.57 22.49Q92.09 23.48 92.09 24.74L92.09 25Q92.09 26.57 92.83 27.61Q92.98 27.83 93.17 28.02Q93.54 28.41 93.99 28.67ZM105.17 27.81Q104.78 27.97 104.33 27.97Q103.6 27.97 103.1 27.64Q102.82 27.46 102.61 27.18Q102.01 26.39 102.01 24.93L102.01 24.66Q102.01 23.16 102.61 22.37Q102.84 22.07 103.14 21.88Q103.63 21.57 104.32 21.57Q104.83 21.57 105.24 21.78Q105.49 21.9 105.7 22.1Q105.9 22.3 106.04 22.53Q106.28 22.93 106.32 23.45L107.69 23.45Q107.65 22.61 107.28 21.96Q107.04 21.56 106.68 21.24Q106.41 20.99 106.11 20.82Q105.34 20.39 104.32 20.39Q103.23 20.39 102.41 20.86Q102.36 20.89 102.32 20.92Q102.05 21.08 101.83 21.29Q101.33 21.75 101.02 22.41Q100.56 23.37 100.56 24.6L100.56 24.85Q100.56 26.78 101.51 27.92Q101.55 27.96 101.58 28Q101.92 28.38 102.34 28.64Q103.17 29.15 104.33 29.15Q104.74 29.15 105.13 29.06Q105.56 28.96 105.96 28.76Q106.58 28.45 107 27.96Q107.1 27.84 107.19 27.71Q107.56 27.18 107.66 26.6Q107.68 26.47 107.69 26.33L106.32 26.33Q106.29 26.62 106.18 26.87Q106.02 27.23 105.68 27.5Q105.44 27.7 105.17 27.81ZM117.91 21.78Q118.3 21.78 118.62 21.84L118.62 20.5Q118.41 20.39 117.98 20.39Q117.37 20.39 116.88 20.64Q116.34 20.92 115.97 21.52L115.94 20.54L114.54 20.54L114.54 29L115.98 29L115.98 23Q116.2 22.47 116.6 22.17Q117.11 21.78 117.91 21.78ZM121.34 28.67Q122.19 29.15 123.31 29.15Q124.58 29.15 125.46 28.57Q126.07 28.18 126.5 27.52L125.62 26.83Q125.27 27.28 124.81 27.58Q124.75 27.62 124.69 27.66Q124.16 27.97 123.39 27.97Q122.79 27.97 122.31 27.73Q121.92 27.54 121.61 27.2Q121.51 27.09 121.43 26.97Q120.91 26.25 120.88 25.18L126.61 25.18L126.61 24.58Q126.61 22.56 125.69 21.47Q125.42 21.15 125.09 20.92Q124.29 20.39 123.13 20.39Q122.69 20.39 122.28 20.49Q121.75 20.63 121.26 20.94Q121.03 21.1 120.82 21.28Q120.27 21.77 119.92 22.49Q119.44 23.48 119.44 24.74L119.44 25Q119.44 26.57 120.17 27.61Q120.33 27.83 120.52 28.02Q120.89 28.41 121.34 28.67ZM45.82 27.12Q45.16 26.27 45.16 24.86Q45.16 23.28 45.82 22.42Q46.15 21.99 46.59 21.78Q47.02 21.57 47.55 21.57Q48.1 21.57 48.55 21.8Q48.98 22.01 49.3 22.44Q49.96 23.3 49.96 24.69Q49.96 26.25 49.31 27.11Q49 27.52 48.59 27.73Q48.14 27.97 47.56 27.97Q46.99 27.97 46.54 27.74Q46.13 27.52 45.82 27.12ZM94.97 21.74Q95.34 21.57 95.79 21.57Q96.4 21.57 96.83 21.84Q97.05 21.98 97.23 22.18Q97.76 22.78 97.82 23.89L97.82 24L93.58 24Q93.73 22.85 94.32 22.21Q94.61 21.9 94.97 21.74ZM122.32 21.74Q122.69 21.57 123.13 21.57Q123.74 21.57 124.18 21.84Q124.39 21.98 124.57 22.18Q125.1 22.78 125.16 23.89L125.16 24L120.93 24Q121.07 22.85 121.66 22.21Q121.96 21.9 122.32 21.74ZM58.3 22.44Q58.91 23.27 58.91 24.7Q58.91 26.32 58.3 27.15Q58 27.55 57.6 27.75Q57.18 27.97 56.65 27.97Q55.97 27.97 55.47 27.67Q54.98 27.38 54.66 26.82L54.66 22.78Q55 22.17 55.52 21.88Q56 21.61 56.63 21.61Q57.21 21.61 57.65 21.85Q58.02 22.06 58.3 22.44ZM66.19 23.91L76.62 23.91L76.62 22.73L66.19 22.73L66.19 23.91Z" fill="#FFFFFF" fill-opacity="1.000000" fill-rule="evenodd"/>
</svg>
