<svg width="121.000000" height="16.000000" viewBox="0 0 121 16" fill="none" xmlns="http://www.w3.org/2000/svg" xmlns:xlink="http://www.w3.org/1999/xlink">
	<desc>
			Created with Pixso.
	</desc>
	<defs>
		<clipPath id="clip80_499">
			<rect id="Frame" rx="0.000000" width="120.000000" height="15.000000" transform="translate(0.500000 0.500000)" fill="white" fill-opacity="0"/>
		</clipPath>
	</defs>
	<rect id="Frame" rx="0.000000" width="120.000000" height="15.000000" transform="translate(0.500000 0.500000)" fill="#FFFFFF" fill-opacity="0"/>
	<g clip-path="url(#clip80_499)">
		<mask id="mask80_500" mask-type="alpha" maskUnits="userSpaceOnUse" x="0.000000" y="0.054199" width="15.064741" height="15.341766">
			<path id="Vector" d="M0 0.05L15.06 0.05L15.06 15.39L0 15.39L0 0.05Z" fill="#FFFFFF" fill-opacity="1.000000" fill-rule="evenodd"/>
		</mask>
		<mask id="mask80_502" mask-type="alpha" maskUnits="userSpaceOnUse" x="0.177734" y="0.027344" width="9.304659" height="15.067108">
			<path id="Vector" d="M0.17 0.02L9.48 0.02L9.48 15.09L0.17 15.09L0.17 0.02Z" fill="#FFFFFF" fill-opacity="1.000000" fill-rule="evenodd"/>
		</mask>
		<mask id="mask80_504" mask-type="alpha" maskUnits="userSpaceOnUse" x="0.000000" y="0.301758" width="120.767632" height="15.341887">
			<path id="Vector" d="M0 15.64L120.76 15.64L120.76 0.3L0 0.3L0 15.64Z" fill="#FFFFFF" fill-opacity="1.000000" fill-rule="evenodd"/>
		</mask>
		<g mask="url(#mask80_504)">
			<path id="Vector" d="M7.53 13.54C10.55 13.54 13 11.05 13 7.97C13 4.89 10.55 2.4 7.53 2.4C4.5 2.4 2.06 4.89 2.06 7.97C2.06 11.05 4.5 13.54 7.53 13.54ZM7.53 0.3C11.69 0.3 15.06 3.73 15.06 7.97C15.06 12.21 11.69 15.64 7.53 15.64C3.37 15.64 0 12.21 0 7.97C0 3.73 3.37 0.3 7.53 0.3Z" fill="#202020" fill-opacity="1.000000" fill-rule="evenodd"/>
			<path id="Vector" d="M18.29 6.03L18.29 11.38C18.29 12.93 18.89 13.72 20.08 13.72C21.3 13.72 21.89 12.93 21.89 11.38L21.89 6.03L24.01 6.03L24.01 15.36L21.89 15.36L21.89 14.3C21.57 15.07 20.85 15.64 19.6 15.64C18.21 15.64 16.94 14.87 16.44 13.36C16.27 12.87 16.17 12.24 16.17 11.44L16.17 6.03L18.29 6.03Z" fill="#202020" fill-opacity="1.000000" fill-rule="evenodd"/>
			<path id="Vector" d="M30.5 6.03L30.5 8.05L28.19 8.05L28.19 11.6C28.19 12.38 28.25 12.89 28.38 13.15C28.52 13.42 28.77 13.56 29.16 13.56C29.44 13.56 29.83 13.44 30.29 13.21L30.5 13.09L30.5 15.31C29.94 15.52 29.48 15.64 29.08 15.64C28.02 15.64 27.23 15.31 26.67 14.62C26.26 14.13 26.07 13.3 26.07 12.13L26.07 8.05L25.32 8.05L25.32 6.03L26.07 6.03L26.07 3L28.19 3L28.19 6.03L30.5 6.03Z" fill="#202020" fill-opacity="1.000000" fill-rule="evenodd"/>
			<path id="Vector" d="M34.05 12.85C34.53 13.42 35.14 13.72 35.88 13.72C36.65 13.72 37.28 13.44 37.76 12.89C38.25 12.32 38.5 11.6 38.5 10.71C38.5 9.85 38.25 9.12 37.76 8.56C37.28 7.99 36.66 7.71 35.9 7.71C35.14 7.71 34.55 7.99 34.07 8.56C33.58 9.12 33.33 9.83 33.33 10.68C33.33 11.56 33.56 12.28 34.05 12.85ZM38.36 0.57L40.48 0.57L40.48 15.36L38.36 15.36L38.36 14.29C37.63 15.27 36.59 15.64 35.53 15.64C34.28 15.64 33.24 15.17 32.41 14.23C31.58 13.3 31.17 12.11 31.17 10.68C31.17 9.26 31.58 8.11 32.39 7.18C33.22 6.24 34.24 5.77 35.49 5.77C36.55 5.77 37.63 6.12 38.36 7.22L38.36 0.57Z" fill="#202020" fill-opacity="1.000000" fill-rule="evenodd"/>
			<path id="Vector" d="M46.27 13.72C48 13.72 49.07 12.38 49.07 10.71C49.07 9.05 48 7.71 46.27 7.71C44.54 7.71 43.5 9.05 43.5 10.71C43.5 12.38 44.54 13.72 46.27 13.72ZM46.27 5.77C49.01 5.77 51.16 7.97 51.16 10.71C51.16 13.46 49.01 15.64 46.27 15.64C43.54 15.64 41.4 13.46 41.4 10.71C41.4 7.97 43.54 5.77 46.27 5.77Z" fill="#202020" fill-opacity="1.000000" fill-rule="evenodd"/>
			<path id="Vector" d="M56.7 13.72C58.43 13.72 59.49 12.38 59.49 10.71C59.49 9.05 58.43 7.71 56.7 7.71C54.96 7.71 53.92 9.05 53.92 10.71C53.92 12.38 54.96 13.72 56.7 13.72ZM56.7 5.77C59.43 5.77 61.59 7.97 61.59 10.71C61.59 13.46 59.43 15.64 56.7 15.64C53.96 15.64 51.82 13.46 51.82 10.71C51.82 7.97 53.96 5.77 56.7 5.77Z" fill="#202020" fill-opacity="1.000000" fill-rule="evenodd"/>
			<path id="Vector" d="M62.51 6.03L64.63 6.03L64.63 6.97C65.03 6.26 65.69 5.77 66.65 5.77C67.17 5.77 67.58 5.93 67.83 6.16L67.83 8.4C67.48 8.12 67.04 7.97 66.55 7.97C65.26 7.97 64.63 8.83 64.63 10.48L64.63 15.36L62.51 15.36L62.51 6.03Z" fill="#202020" fill-opacity="1.000000" fill-rule="evenodd"/>
			<path id="Vector" d="M85.02 0.57L79.26 15.36L76.49 15.36L70.71 0.57L73.13 0.57L77.8 13.01L77.91 13.01L82.59 0.57L85.02 0.57Z" fill="#202020" fill-opacity="1.000000" fill-rule="evenodd"/>
			<path id="Vector" d="M87.62 13.72C89.35 13.72 90.41 12.38 90.41 10.71C90.41 9.05 89.35 7.71 87.62 7.71C85.88 7.71 84.84 9.05 84.84 10.71C84.84 12.38 85.88 13.72 87.62 13.72ZM87.62 5.77C90.35 5.77 92.51 7.97 92.51 10.71C92.51 13.46 90.35 15.64 87.62 15.64C84.88 15.64 82.74 13.46 82.74 10.71C82.74 7.97 84.88 5.77 87.62 5.77Z" fill="#202020" fill-opacity="1.000000" fill-rule="evenodd"/>
			<path id="Vector" d="M93.5 15.36L95.62 15.36L95.62 6.03L93.5 6.03L93.5 15.36ZM94.56 0.77C95.37 0.77 96 1.42 96 2.24C96 3.06 95.37 3.71 94.56 3.71C93.75 3.71 93.12 3.06 93.12 2.24C93.12 1.42 93.75 0.77 94.56 0.77Z" fill="#231F20" fill-opacity="1.000000" fill-rule="evenodd"/>
			<path id="Vector" d="M104.16 8.89C103.55 8.11 102.83 7.75 101.62 7.75C99.89 7.75 98.77 9.05 98.77 10.71C98.77 12.42 99.89 13.66 101.54 13.66C102.76 13.66 103.41 13.28 104.16 12.5L104.16 14.93C103.35 15.5 102.45 15.64 101.6 15.64C98.83 15.64 96.61 13.58 96.61 10.73C96.61 7.79 98.81 5.75 101.6 5.75C102.54 5.75 103.45 5.93 104.16 6.44L104.16 8.89Z" fill="#202020" fill-opacity="1.000000" fill-rule="evenodd"/>
			<path id="Vector" d="M111.57 9.44C111.28 8.28 110.57 7.71 109.43 7.71C108.43 7.71 107.57 8.42 107.32 9.44L111.57 9.44ZM113.73 11.21L107.18 11.21C107.24 11.99 107.49 12.6 107.91 13.03C108.36 13.48 109.11 13.72 109.78 13.72C110.3 13.72 110.75 13.62 111.15 13.44C111.69 13.21 112.35 12.75 112.86 12.13L112.86 14.54C112.17 15.11 111.4 15.64 109.49 15.64C108.13 15.64 107.03 15.19 106.2 14.29C105.37 13.4 104.97 12.21 104.97 10.71C104.97 9.24 105.37 8.05 106.16 7.12C106.97 6.22 108.05 5.77 109.38 5.77C110.73 5.77 111.79 6.2 112.58 7.08C113.36 7.97 113.75 9.16 113.75 10.69L113.73 11.21Z" fill="#202020" fill-opacity="1.000000" fill-rule="evenodd"/>
			<path id="Vector" d="M120.18 8.73C119.41 7.93 118.6 7.67 117.89 7.67C117.24 7.67 116.7 7.89 116.7 8.42C116.7 8.95 117.1 9.16 117.93 9.54C119.67 10.3 120.76 10.83 120.76 12.5C120.76 14.34 119.51 15.64 117.55 15.64C116.06 15.64 115.21 15.23 114.52 14.66L114.52 12.07C115.27 13.07 116.31 13.66 117.16 13.66C118.14 13.66 118.6 13.38 118.6 12.72C118.6 12.32 118.41 11.95 117.78 11.64L116.49 11.01C115.35 10.46 114.69 9.83 114.69 8.58C114.69 6.75 116.02 5.77 117.68 5.77C118.99 5.77 119.67 6.1 120.18 6.5L120.18 8.73Z" fill="#202020" fill-opacity="1.000000" fill-rule="evenodd"/>
		</g>
	</g>
</svg>
